<svg 
 xmlns="http://www.w3.org/2000/svg"
 xmlns:xlink="http://www.w3.org/1999/xlink"
 width="1164px" height="214px">
<path fill-rule="evenodd"  fill="rgb(255, 255, 255)"
 d="M451.000,155.1000 C451.000,155.1000 383.504,177.207 322.1000,167.1000 C268.859,159.761 221.000,121.000 221.000,121.000 C221.000,121.000 201.669,127.747 182.000,126.1000 C162.169,126.247 141.1000,117.1000 141.1000,117.1000 C141.1000,117.1000 114.588,131.781 87.000,130.1000 C61.686,130.284 36.000,115.000 36.000,115.000 C36.000,115.000 3.965,93.390 1.000,69.000 C-2.513,40.100 34.000,13.1000 34.000,13.1000 C34.000,13.1000 45.555,5.924 64.000,3.000 C86.204,-0.520 116.000,1.000 116.000,1.000 L1056.1000,1.000 C1056.1000,1.000 1137.670,6.406 1155.1000,37.1000 C1175.626,71.829 1151.1000,113.000 1151.1000,113.000 C1151.1000,113.000 1141.965,126.760 1128.1000,137.1000 C1118.801,146.841 1105.669,153.065 1096.000,156.1000 C1074.982,165.554 1065.000,168.1000 1065.000,168.1000 C1065.000,168.1000 1031.021,175.868 1002.1000,173.1000 C978.802,172.387 947.000,162.1000 947.000,162.1000 C947.000,162.1000 928.506,157.739 915.000,148.1000 C903.109,141.306 890.1000,126.1000 890.1000,126.1000 C890.1000,126.1000 873.343,143.204 852.1000,147.1000 C835.993,152.010 816.192,144.055 812.000,149.1000 C774.941,202.563 704.000,161.1000 704.000,161.1000 C704.000,161.1000 646.510,210.775 579.1000,212.1000 C512.026,215.274 451.000,155.1000 451.000,155.1000 Z"/>
</svg>