<svg width="328" height="193" viewBox="346 487 328 193" xmlns="http://www.w3.org/2000/svg"><g fill="none" fill-rule="evenodd" transform="translate(346 487)"><rect fill="#D8D8D8" width="328" height="193" rx="8"/><path d="M0 25.544h328v159.464a7.991 7.991 0 0 1-8.006 7.992H8.006C3.584 193 0 189.425 0 185.008V25.544z" fill="#FFF"/><g transform="translate(8.52 8.515)"><ellipse fill="#FF483F" cx="5.68" cy="5.676" rx="5.68" ry="5.676"/><ellipse fill="#ECBB38" cx="22.719" cy="5.676" rx="5.68" ry="5.676"/><ellipse fill="#36D3A8" cx="39.758" cy="5.676" rx="5.68" ry="5.676"/></g><g transform="translate(12 33)"><rect fill="#DAE9FF" y="23.223" width="75" height="11.288" rx="4"/><rect fill="#F0F0F0" x="229" y="82.27" width="75" height="11.288" rx="4"/><rect fill="#F0F0F0" x="229" y="65.771" width="75" height="11.288" rx="4"/><rect fill="#F0F0F0" x="229" y="2" width="75" height="58.561" rx="4"/><rect fill="#F0F0F0" y="38.853" width="75" height="11.288" rx="4"/><rect fill="#F0F0F0" y="54.483" width="75" height="11.288" rx="4"/><rect fill="#F0F0F0" y="139" width="12" height="11.288" rx="4"/><rect fill="#F0F0F0" y="2" width="12" height="11.288" rx="4"/><rect fill="#F0F0F0" x="18" y="2" width="37" height="11.288" rx="4"/><rect fill="#F0F0F0" x="62" y="2" width="37" height="11.288" rx="4"/><rect fill="#D6FFB9" x="292" y="138.712" width="12" height="11.288" rx="4"/><text font-family="HelveticaNeue-Bold, Helvetica Neue" font-size="10" font-weight="bold" fill="#B9B9B9">
                <tspan x="3" y="10">+</tspan>
            </text></g></g></svg>