<svg xmlns="http://www.w3.org/2000/svg" width="738.5" height="718.5"><path fill-rule="evenodd" stroke="#A2D5E8" fill="#81D3F2" d="M369 1.5c202.965 0 367.5 160.058 367.5 357.5S571.965 716.5 369 716.5 1.5 556.442 1.5 359 166.035 1.5 369 1.5z"/><path fill-rule="evenodd" stroke="#81A064" fill="#749D4E" d="M367.5 1.5c37.574-.355 67.447 5.891 98 10l1 1-2 20-5 5c-31.233.736-74.007-19.876-92-36zm-61 7h3c-6.678 14.272-23.165 23.48-18 43 6.415 4.48 13.747 10.068 25 7l7-3c24.142-12.064 45.654-37.856 80-17 6.934 4.21 10.668 5.288 9 13l-18 6 1 2 5 4v2c-11.538 4.467-30.665.442-43 6l-74 78-3 35c-13.381-9.286-5.258-32.57-23-38-31.97-8.741-108.143 55.513-56 71l19-8 5 3c1.888 8.795-2.105 13.397-5 20l2 2c8.834.953 22.158-.236 27 5 4.999 9.571-1.495 23.288 2 33 52.349 35.936 56.738-12.906 80-7 10.485 2.662 16.912 15.242 31 14l26-6 124 90c17.358 10.833 39.537 4.11 53 18 .333-1.333 3.667 3.333 4 2 2.333 3.666 1.667 1.334 4 5l-37 47c-5.42 14.577-1.607 33.129-10 44l-34 22c-20.203 16.5-32.268 41.354-51 59-13.561 7.362-24.312 15.851-37 24-1.649 1.059-4.039.81-6.386-.152-2.09-.856-4.146-2.279-5.614-3.848-2.21-2.363-2.061-8.374-4-8-1.579.305-1.562 3.503 0 8 .342.985.692.962 1 2 .486 1.639 1.039 4.493 1 6-.072 2.778-2.811 4.566-4 5-3.45 1.26-7.774 1.384-9 2-2.236 1.123-2.885 2.852-5 4-.863 1.041-2.001 5.236-2 9 .001 1.921 2.566 2.944 2 5-.353 1.282-2.681 1.005-4 2-1.421 1.072-4.924 3.708-4 5 .749 1.048 1.89 3.326 3 5 1.943 2.931 2.541 5.385 0 6-2.329.564-3.892 5.072-5 7-.373.649-2.627 8.685 9 24-11.548 5.944-10.821-.801-23-3-3.737-4.078-8.79-8.015-11-13-3.543-7.993-1.418-17.242-2-27-1.578-26.473.709-57.868 4-87 2.392-21.171 7.293-41.208 2-57-5.535-16.516-26.453-17.433-38-28-3.131-2.865-9.156-19.1-19-36-12.544-21.535-29.096-44.807-30-50 11.039-10.512 34.992-42.496 31-62-31.508-4.764-35.305-27.17-56-40l-38-10c-1.425 1.338-15.542-19.366-28.07-21.605-5.418-.968-14.589-7.863-14.93-8.395-9.625-15.018-.328-46.49-6-64h-7l-1 1c-4.9 10.626-6.668 28.214-7 43h-3l-1-1c-9.043-12.421-.313-34.377-1-51-1.708-41.319 31.162-79.542 73-103 50.644-28.395 112.089-37.594 111-36zm254 43c91.053 57.763 78.148 70.236 74 84l-3 2c-15.239.508-27.302-5.915-31-17-3.392-11.968 4.364-15.794 6-27-16.392-13.849-36.987-20.388-46-42zm84 86c5.577-.02 11.24-.663 15 1 3.86 1.708 5.784 5.765 9 9 11.455 11.52 18.792 30.658 26 44 17.357 32.13 31.857 72.842 38 116 8.528 59.911 2.639 124.678-19 179-5.272 13.235-9.214 33.23-20 41-1.149-7.148-3.072-14.824-2-23 5.358-40.881 35.673-92.959 38-139 .879-17.39.989-34.368-9-49-17.414-5.48-39.419.142-52-11-12.029-10.653-46.476-114.842-42-141 2.373-13.867 9.78-19.239 18-27zm-70 246zm-127 180zm4 10zm-56 73 1 2c-.368-.37-.036.392-1 1-1.499.945-5.88 4.974 0-3zm4 1h3c-.894 1.073-3.309 4.038-4 4-.554-.03.427-2.794 1-4zm-3 40 6 1-1 1c-9.106 4.988-18.05 7.408-20 20h3c24.492 7.753 49.069-1.531 75-2v1c-27.159 5.024-68.361 9.432-105 8-9.992-.391-17.039-.79-26-2-8.205-1.108-18.447-2.895-25-6 12.803 0 36.195 2 49 2 7.529 0 4.472-2 12-2v-3l-5-3c-.975.395 5.97-.15 13-3 8.092-3.281 16.909-9.125 24-12zm-130-490-5 1 6 2c.148-1.489 16.477 3.206 16 8l11 1-11-8-11-3-6-1zm32 19 9 1 8-1-6-4-3 1s-1.295-.955-4-1c-2.705-.045-5 1-5 1l3 1-3 1 1 1zm-16 0c.476.573.336.677 2 1 1.664.323 2.211-.323 2-1-.211-.677-4.476-.573-4 0z"/><path fill-rule="evenodd" fill="#96BEB2" d="m345.5 623.5-3 20 5 10 9 4 9 6 6-1-7-13-1-10 6-8 1-3-2-4-4-4 8-6v-5l-1-3 1-2 1-4 4-4h1l3-1 4-1 3-1 3-3 1-1v-4l-2-2v-2l-1-3-2-3v-4l4-8 6-4 9-9v-5l-10 6h-10l-1-10-15-4-7 1-5 2-3-3-6 1-2 10 1 14-4 20 3 12-4 12 3 9-1 8z"/></svg>