<svg xmlns="http://www.w3.org/2000/svg" viewBox="0 0 394.22 394.22" style="enable-background:new 0 0 394.22 394.22" xml:space="preserve"><path transform="rotate(134.999 257.254 136.964)" style="fill:#1e252b" d="M239.808 126.267h34.889v21.393h-34.889z"/><path transform="rotate(134.999 312.622 81.599)" style="fill:#333e48" d="M242.569 36.253h140.103v90.692H242.569z"/><path transform="rotate(134.999 298.017 100.016)" style="fill:#1e252b" d="M295.024 57.368h5.983v85.297h-5.983z"/><path transform="rotate(135.008 331.046 67)" style="fill:#1e252b" d="M328.052 24.351h5.985v85.297h-5.985z"/><path transform="rotate(134.999 284.372 53.348)" style="fill:#61b4e4" d="M214.319 47.954h140.103v10.79H214.319z"/><path transform="rotate(-45.001 136.965 257.26)" style="fill:#1e252b" d="M119.523 246.562h34.889v21.391h-34.889z"/><path transform="rotate(-45.001 81.597 312.624)" style="fill:#333e48" d="M11.549 267.276h140.103v90.692H11.549z"/><path transform="rotate(-44.984 100.025 298.002)" style="fill:#1e252b" d="M97.037 255.35h5.984v85.299h-5.984z"/><path transform="rotate(-44.992 66.997 331.036)" style="fill:#1e252b" d="M64.008 288.385h5.986v85.297h-5.986z"/><path transform="rotate(-45.001 53.348 284.374)" style="fill:#61b4e4" d="M-16.701 278.977h140.103v10.79H-16.701z"/><circle style="fill:#c3c6c8" cx="197.111" cy="197.107" r="77.749"/><path style="fill:#333e48" d="m221.062 123.123-97.937 97.936c3.662 11.346 9.999 22.017 19.009 31.025 9.009 9.01 19.681 15.346 31.025 19.009l97.936-97.936c-3.663-11.346-9.999-22.017-19.008-31.026-9.009-9.009-19.68-15.345-31.025-19.008zM142.135 142.131c-14.817 14.815-22.397 34.123-22.756 53.538l76.293-76.293c-19.414.357-38.723 7.939-53.537 22.755z"/><path transform="rotate(45.001 197.514 217.006)" style="fill:#61b4e4" d="M190.197 209.693h14.627v14.627h-14.627z"/><path transform="rotate(45.001 187.173 206.662)" style="fill:#fff" d="M179.857 199.349h14.627v14.628h-14.627z"/><path transform="rotate(45.001 176.818 196.318)" style="fill:#005cb9" d="M169.501 189.005h14.628v14.628h-14.628z"/><path transform="rotate(45.001 187.185 227.349)" style="fill:#fff" d="M179.868 220.037h14.628v14.626h-14.628z"/><path transform="rotate(45.001 176.844 217.007)" style="fill:#005cb9" d="M169.527 209.695h14.626v14.626h-14.626z"/><path transform="rotate(45.001 166.473 206.66)" style="fill:#61b4e4" d="M159.156 199.348h14.628v14.627h-14.628z"/><path transform="rotate(45.001 176.817 237.688)" style="fill:#61b4e4" d="M169.499 230.375h14.628v14.628h-14.628z"/><path transform="rotate(45.001 166.5 227.35)" style="fill:#fff" d="M159.184 220.037h14.626v14.627h-14.626z"/><path transform="rotate(45.001 156.144 217.006)" style="fill:#005cb9" d="M148.827 209.693h14.627v14.627h-14.627z"/><circle style="fill:#fee050" cx="207.195" cy="169.569" r="9.874"/><circle style="fill:#333e48" cx="236.839" cy="232.182" r="7.547"/><circle style="fill:#333e48" cx="212.738" cy="256.283" r="7.547"/><circle style="fill:#333e48" cx="260.941" cy="208.08" r="7.547"/></svg>