<svg xmlns="http://www.w3.org/2000/svg" viewBox="0 0 512 512" style="enable-background:new 0 0 512 512" xml:space="preserve"><path style="fill:#5c546a" d="M264 116v-16h-16v16h8zM256 180h31.438c.188 0 .375.013.563.018V164h-64v16.018c.188-.004.374-.018.563-.018H256zM209 372l5.248 41.984c1.001 8.007 7.807 14.016 15.876 14.016H256v-56h-47z"/><path style="fill:#888693" d="M256 428h25.875c8.069 0 14.875-6.009 15.876-14.016L303 372h-47v56z"/><path style="fill:#5c546a" d="M0 284v32a8 8 0 0 0 8 8h24v-40H0zM32 228H8a8 8 0 0 0-8 8v32h32v-40zM48 284h32v40H48zM144 324h24a8 8 0 0 0 8-8v-32h-32v40zM176 268v-32a8 8 0 0 0-8-8h-24v40h32zM96 228h32v40H96zM48 228h32v40H48zM96 284h32v40H96z"/><path style="fill:#888693" d="M176 268h-32v-40h-16v40H96v-40H80v40H48v-40H32v40H0v16h32v40h16v-40h32v40h16v-40h32v40h16v-40h48v-16z"/><path style="fill:#5c546a" d="M384 284h32v40h-32zM368 228h-24a8 8 0 0 0-8 8v32h32v-40zM336 284v32a8 8 0 0 0 8 8h24v-40h-32zM480 324h24a8 8 0 0 0 8-8v-32h-32v40zM432 284h32v40h-32zM504 228h-24v40h32v-32a8 8 0 0 0-8-8zM432 228h32v40h-32zM384 228h32v40h-32z"/><path style="fill:#888693" d="M480 228h-16v40h-32v-40h-16v40h-32v-40h-16v40h-48v16h48v40h16v-40h32v40h16v-40h32v40h16v-40h32v-16h-32z"/><path style="fill:#ff9300" d="M256 364v-48h-16v39a1 1 0 0 1-1 1h-14a1 1 0 0 1-1-1v-39h-8a8 8 0 0 1-8-8v-32a8 8 0 0 1 8-8h8v-39a1 1 0 0 1 1-1h14a1 1 0 0 1 1 1v39h16v-56h-64v152c0 4.418 3.578 8 8 8h56v-8z"/><path style="fill:#ffcf00" d="M320 212h-64v56h16v-39a1 1 0 0 1 1-1h14a1 1 0 0 1 1 1v39h8a8 8 0 0 1 8 8v32c0 .276-.014.549-.041.818a7.761 7.761 0 0 1-.223 1.188 7.76 7.76 0 0 1-.168.569 8.01 8.01 0 0 1-4.92 4.966 7.959 7.959 0 0 1-2.648.458h-8v39a1 1 0 0 1-1 1h-14a1 1 0 0 1-1-1v-39h-16v56h56c4.422 0 8-3.582 8-8V212z"/><path style="fill:#888693" d="M256 180h-31.437c-.188 0-.375.013-.563.018a23.945 23.945 0 0 0-19.406 10.67l-11.25 16.875A8.005 8.005 0 0 0 192 212h64v-32z"/><path style="fill:#b6b8be" d="M256 180v32h64a8.011 8.011 0 0 0-1.344-4.438l-11.25-16.875A23.945 23.945 0 0 0 288 180.017c-.188-.004-.374-.018-.563-.018H256z"/><path style="fill:#888693" d="M256 116h-14.461c-2.031 0-4.023.383-5.938 1.145l-33.539 13.414c-6.109 2.445-10.063 8.277-10.063 14.859V156c0 4.418 3.578 8 8 8h56v-48z"/><path style="fill:#b6b8be" d="M224 268h-8a8 8 0 0 0-8 8v32a8 8 0 0 0 8 8h40v-48h-32zM303.959 308.818zM298.648 315.541z"/><path style="fill:#ffcf00" d="M264 100h8c4.422 0 8-3.582 8-8s-3.578-8-8-8h-16v16h8z"/><path style="fill:#b6b8be" d="M256 164h56c4.422 0 8-3.582 8-8v-10.582a15.923 15.923 0 0 0-10.063-14.855l-33.555-13.43A16.053 16.053 0 0 0 270.46 116H256v48z"/><path style="fill:#ff9300" d="M256 84h-16c-4.422 0-8 3.582-8 8s3.578 8 8 8h16V84z"/><path style="fill:#d5d9de" d="M272 316h24a7.98 7.98 0 0 0 2.648-.458 8.007 8.007 0 0 0 4.92-4.966c.064-.187.118-.377.168-.569.1-.387.181-.781.223-1.188a8.19 8.19 0 0 0 .041-.818v-32a8 8 0 0 0-8-8h-40v48h16z"/><path style="fill:#5c546a" d="M240 229a1 1 0 0 0-1-1h-14a1 1 0 0 0-1 1v39h16v-39zM224 355a1 1 0 0 0 1 1h14a1 1 0 0 0 1-1v-39h-16v39z"/><path style="fill:#888693" d="M288 229a1 1 0 0 0-1-1h-14a1 1 0 0 0-1 1v39h16v-39zM272 355a1 1 0 0 0 1 1h14a1 1 0 0 0 1-1v-39h-16v39z"/></svg>